# xmcd CD database file
#
# Track frame offsets:
#	150
#	18212
#	32232
#	46325
#	64447
#	82435
#	136165
#	160552
#	173420
#	201237
#	234265
#
# Disc length: 3449 seconds
#
# Revision: 3
# Processed by: cddbd v1.5.2PL0 Copyright (c) Steve Scherf et al.
# Submitted via: CDex 1.51
#
DISCID=8a0d770b
DTITLE=Chanticleer - Where the Sun Will Never Go Down
DYEAR=1990
DGENRE=Gospel
TTITLE0=Old Time Religion
TTITLE1=Deep River
TTITLE2=Jesus Come By Here
TTITLE3=All Night, All Day
TTITLE4=We Shall Walk Through the Valley in Peace
TTITLE5=Where the Sun Will Never Go Down
TTITLE6=Steal Away
TTITLE7=I've Been 'Buked
TTITLE8=Lord I want to be a Christian
TTITLE9=Am I a Soldier of the Cross
TTITLE10=Twelve Gates to the City
EXTD=Spirituals and Traditional Gospel Music YEAR: 1990
EXTT0=
EXTT1=
EXTT2=
EXTT3=
EXTT4=
EXTT5=
EXTT6=
EXTT7=
EXTT8=
EXTT9=
EXTT10=
PLAYORDER=
